<?xml version="1.0" standalone="no"?>
<!DOCTYPE svg PUBLIC "-//W3C//DTD SVG 20010904//EN"
 "http://www.w3.org/TR/2001/REC-SVG-20010904/DTD/svg10.dtd">
<svg version="1.0" xmlns="http://www.w3.org/2000/svg"
 width="1296.000000pt" height="1296.000000pt" viewBox="0 0 1296.000000 1296.000000"
 preserveAspectRatio="xMidYMid meet">
<metadata>
Created by potrace 1.11, written by Peter Selinger 2001-2013
</metadata>
<g transform="translate(0.000000,1296.000000) scale(0.100000,-0.100000)"
fill="#000000" stroke="none">
<path d="M3625 12944 c-33 -7 -69 -16 -80 -19 -26 -6 -186 -85 -201 -99 -7 -6
-38 -33 -70 -61 -101 -85 -179 -207 -225 -355 l-24 -75 1 -5840 c0 -3212 2
-5849 3 -5860 14 -103 99 -295 157 -352 7 -7 21 -23 31 -35 46 -57 185 -157
258 -186 17 -6 44 -17 60 -23 17 -7 37 -13 45 -14 8 -2 33 -7 55 -11 49 -11
5665 -12 5718 -2 249 50 459 224 559 465 l33 78 3 5905 2 5905 -22 70 c-49
154 -135 275 -263 370 -22 17 -42 33 -45 36 -8 10 -157 80 -180 84 -12 2 -31
7 -43 11 -12 4 -33 10 -47 13 -14 3 -1294 6 -2845 7 -2393 2 -2829 0 -2880
-12z m5673 -298 c167 -34 303 -164 347 -331 13 -53 15 -640 15 -5489 0 -2986
1 -5430 3 -5432 1 -1 0 -37 -3 -79 -3 -42 -3 -78 0 -80 3 -2 3 -38 0 -80 -3
-42 -3 -78 0 -80 3 -2 3 -38 0 -80 -3 -42 -2 -79 3 -82 4 -2 5 -8 3 -12 -3 -4
-6 -52 -7 -106 -1 -54 -7 -121 -14 -149 -38 -163 -177 -294 -345 -329 -53 -10
-579 -12 -2825 -11 -1518 1 -2769 4 -2780 7 -11 3 -33 8 -50 12 -130 32 -256
163 -306 320 -10 32 -13 1160 -13 5805 -1 3171 2 5785 5 5810 4 25 10 58 14
75 20 93 131 223 229 270 55 26 67 30 139 43 49 9 5541 7 5585 -2z"/>
<path d="M5865 12040 c-52 -8 -89 -33 -109 -75 -36 -74 -6 -162 65 -194 34
-15 98 -17 671 -16 581 1 636 2 665 18 40 21 59 49 71 103 13 57 -18 119 -73
148 -38 19 -56 20 -645 21 -333 0 -623 -2 -645 -5z"/>
<path d="M3715 11433 c-40 -22 -72 -59 -79 -96 -3 -16 -6 -2021 -6 -4454 0
-3906 2 -4428 15 -4453 8 -16 31 -41 50 -56 l35 -26 2759 0 c2637 0 2760 1
2790 18 16 10 40 32 53 48 l23 31 0 4444 c0 3891 -2 4448 -15 4475 -18 39 -28
49 -66 69 -28 14 -301 16 -2780 16 -2484 -1 -2752 -2 -2779 -16z m5335 -4534
c0 -4049 -1 -4259 -17 -4260 -23 -1 -5096 -1 -5105 0 -3 1 -6 1918 -6 4260
l-1 4259 2565 0 2564 0 0 -4259z"/>
<path d="M4886 6455 c-121 -58 -207 -230 -208 -414 0 -105 18 -206 45 -238 5
-7 7 -13 3 -13 -10 0 55 -104 83 -131 170 -168 406 -46 464 241 16 79 12 268
-7 287 -3 3 -6 13 -6 22 0 27 -56 134 -91 174 -78 90 -188 118 -283 72z"/>
<path d="M7935 6468 c-32 -11 -105 -63 -118 -84 -4 -7 -13 -19 -20 -26 -24
-23 -71 -133 -83 -190 -5 -24 -16 -126 -16 -143 9 -329 233 -536 437 -402 31
20 89 90 113 136 63 121 77 325 32 459 -46 136 -111 215 -205 246 -52 18 -96
19 -140 4z"/>
<path d="M4950 5272 c-37 -4 -120 -35 -120 -44 0 -4 -6 -8 -13 -8 -19 0 -90
-72 -109 -111 -34 -70 -37 -91 -24 -167 10 -64 117 -312 138 -320 4 -2 8 -8 8
-12 0 -9 58 -100 70 -110 3 -3 17 -21 30 -40 40 -57 51 -69 140 -159 47 -47
112 -106 145 -131 33 -25 62 -48 63 -52 2 -5 9 -8 15 -8 6 0 18 -7 28 -16 71
-64 440 -224 573 -248 15 -3 34 -7 44 -10 22 -7 123 -24 187 -32 11 -1 20 -3
20 -4 0 -6 164 -13 340 -14 286 -1 391 10 620 67 247 61 483 176 665 322 108
87 241 222 290 295 8 12 20 28 26 34 49 52 169 282 204 390 48 150 -20 288
-177 358 l-48 22 -1545 0 c-850 1 -1556 0 -1570 -2z"/>
<path d="M6428 2105 c-2 -2 -27 -7 -55 -10 -93 -10 -221 -62 -318 -128 -46
-31 -159 -149 -191 -198 -40 -63 -81 -149 -94 -200 -24 -86 -30 -131 -31 -197
-2 -147 23 -252 91 -379 41 -76 43 -79 86 -128 14 -16 29 -34 32 -40 4 -6 27
-27 52 -46 25 -18 47 -37 50 -40 14 -18 134 -79 200 -102 203 -69 409 -52 600
49 201 106 349 311 387 534 9 52 9 208 0 261 -17 109 -75 239 -145 329 -49 63
-153 160 -171 160 -5 0 -11 4 -13 9 -8 20 -160 87 -248 108 -54 13 -224 26
-232 18z m177 -321 c29 -8 73 -25 97 -39 337 -188 311 -665 -44 -812 -82 -34
-223 -38 -308 -9 -242 83 -370 360 -273 591 88 209 315 324 528 269z"/>
</g>
</svg>
