<?xml version="1.0" standalone="no"?>
<!DOCTYPE svg PUBLIC "-//W3C//DTD SVG 20010904//EN"
 "http://www.w3.org/TR/2001/REC-SVG-20010904/DTD/svg10.dtd">
<svg version="1.0" xmlns="http://www.w3.org/2000/svg"
 width="1052.000000pt" height="1052.000000pt" viewBox="0 0 1052.000000 1052.000000"
 preserveAspectRatio="xMidYMid meet">
<metadata>
Created by potrace 1.11, written by Peter Selinger 2001-2013
</metadata>
<g transform="translate(0.000000,1052.000000) scale(0.100000,-0.100000)"
fill="#000000" stroke="none">
<path d="M5055 9002 c-2 -2 -41 -6 -87 -8 -45 -3 -92 -6 -103 -8 -11 -2 -49
-7 -85 -11 -36 -4 -72 -9 -80 -10 -8 -1 -16 -12 -18 -23 -2 -12 -8 -22 -13
-22 -5 0 -8 3 -8 8 3 20 -2 32 -12 27 -6 -4 -27 -9 -47 -10 -20 -2 -37 -4 -37
-5 0 -1 -7 -3 -15 -5 -8 -1 -51 -11 -95 -20 -44 -10 -80 -17 -80 -16 0 1 -13
-3 -30 -9 -16 -7 -38 -14 -47 -16 -10 -2 -26 -6 -35 -8 -49 -11 -374 -127
-383 -136 -3 -3 -12 -6 -20 -8 -29 -6 -336 -159 -427 -214 l-93 -54 28 -45
c15 -24 32 -50 37 -58 5 -9 -6 -6 -28 7 -19 13 -57 25 -84 28 -47 6 -50 5
-156 -71 -60 -42 -111 -84 -114 -93 -4 -9 -9 -19 -12 -22 -21 -18 -81 -205
-81 -252 0 -10 -4 -18 -8 -18 -5 0 -14 31 -21 69 -21 114 -23 115 -120 24
-149 -139 -317 -322 -419 -458 -4 -5 -22 -29 -40 -51 -17 -23 -32 -46 -32 -52
0 -5 15 -33 34 -61 24 -35 30 -51 20 -51 -8 0 -14 4 -14 8 0 5 -21 13 -47 19
-54 13 -48 17 -110 -82 -20 -33 -40 -61 -45 -63 -4 -2 -8 -8 -8 -13 0 -6 -22
-47 -49 -93 -44 -75 -124 -234 -180 -359 -18 -41 -20 -54 -11 -87 6 -21 10
-42 9 -47 -1 -4 0 -10 1 -13 2 -5 6 -22 13 -55 11 -44 46 -127 77 -176 30 -49
30 -51 8 -37 -55 36 -147 40 -214 8 -41 -20 -41 -21 -67 -123 -36 -140 -65
-263 -73 -317 -3 -25 -8 -54 -10 -65 -16 -97 -29 -210 -38 -330 -4 -50 15 -99
61 -163 l16 -23 -37 18 c-27 12 -39 14 -44 6 -9 -15 -7 -225 3 -373 5 -63 9
-130 9 -147 1 -18 5 -33 9 -33 5 0 6 -4 3 -9 -3 -4 2 -53 10 -107 9 -54 18
-115 21 -134 19 -136 129 -539 180 -660 3 -8 7 -17 8 -20 1 -3 6 -16 12 -30 6
-14 34 -79 63 -145 44 -102 124 -260 205 -404 26 -45 197 -304 206 -311 4 -3
24 -27 44 -55 21 -27 42 -52 47 -53 4 -2 8 -9 8 -15 0 -7 22 -35 48 -63 26
-28 59 -66 74 -84 17 -20 31 -29 39 -24 7 4 10 3 5 -4 -3 -5 6 -24 20 -41 31
-37 190 -192 254 -247 25 -21 47 -41 50 -44 37 -39 136 -110 147 -106 8 3 11
1 8 -4 -6 -10 17 -40 30 -40 6 0 51 -33 100 -73 41 -34 298 -188 391 -235 l41
-21 -8 47 c-14 78 -18 95 -39 157 -20 59 -60 134 -89 169 -16 19 -15 19 9 3
65 -45 157 -50 233 -13 l47 23 -23 -31 c-25 -33 -70 -122 -73 -144 -2 -8 -6
-21 -10 -30 -4 -9 -8 -19 -9 -22 -4 -16 -15 -70 -20 -100 -3 -19 -8 -36 -10
-39 -7 -6 15 -41 25 -41 5 0 53 -21 107 -46 54 -25 107 -49 118 -54 11 -4 49
-19 85 -34 72 -28 239 -85 285 -96 17 -4 38 -11 48 -15 10 -4 17 -4 16 1 -2 5
1 25 6 44 l9 35 8 -44 c9 -50 9 -50 34 -55 11 -2 46 -11 79 -20 33 -8 78 -18
99 -22 21 -3 48 -8 60 -10 93 -18 182 -31 267 -40 35 -3 66 -8 68 -10 11 -10
39 20 49 53 12 41 25 107 26 135 1 32 14 4 20 -42 3 -25 7 -52 9 -60 13 -53
21 -76 28 -86 9 -11 395 -11 524 0 28 3 55 5 61 5 19 1 35 52 51 154 6 40 21
51 20 15 -1 -33 22 -129 33 -144 10 -10 88 0 295 41 60 12 192 46 273 71 74
22 82 27 82 49 0 14 5 25 11 25 5 0 8 -4 5 -8 -2 -4 -1 -14 3 -20 17 -27 423
145 647 274 l31 18 -14 45 c-8 25 -16 53 -18 61 -6 26 -43 103 -71 149 l-27
44 29 -21 c55 -40 168 -46 210 -12 6 6 14 7 17 3 4 -3 7 -1 7 5 0 7 5 12 12
12 7 0 5 -7 -4 -17 -33 -37 -77 -132 -103 -220 -7 -24 7 -31 28 -13 7 6 62 43
122 82 61 40 136 92 168 118 33 25 69 52 80 60 51 35 61 49 48 64 -7 8 -27 19
-44 25 -65 20 -104 19 -161 -4 l-55 -22 28 41 c43 64 100 228 101 291 1 17 2
18 10 4 5 -9 12 -31 15 -50 14 -83 78 -249 96 -249 4 0 11 -9 14 -20 3 -11 11
-20 16 -20 23 0 362 327 430 414 12 16 32 38 43 50 12 12 32 36 46 54 14 19
31 40 37 47 8 8 9 15 3 17 -10 3 -14 16 -25 83 -11 60 -47 154 -80 210 -39 63
-43 74 -20 51 40 -40 148 -46 217 -13 l46 23 -24 -31 c-13 -18 -24 -37 -24
-43 0 -7 -4 -12 -10 -12 -5 0 -9 -3 -8 -7 1 -5 -6 -26 -16 -48 -9 -21 -18 -46
-19 -55 -2 -8 -5 -19 -8 -25 -4 -5 -9 -26 -13 -45 -3 -19 -8 -45 -10 -58 -3
-12 -1 -22 4 -22 18 0 267 363 290 426 8 20 6 24 -8 24 -9 -1 -28 -7 -42 -15
-40 -23 -41 -18 -10 31 35 57 76 162 85 224 17 105 20 109 31 38 4 -29 9 -55
9 -58 1 -3 6 -20 10 -37 4 -18 11 -33 15 -33 8 0 96 184 140 296 87 216 187
549 169 560 -15 9 -83 -8 -119 -29 -33 -20 -34 -20 -19 -1 30 35 67 109 87
169 27 83 45 173 37 185 -3 5 -1 10 4 10 10 0 15 -28 14 -67 -1 -7 2 -13 6
-13 4 0 8 -10 9 -22 1 -13 4 -32 6 -43 3 -11 5 -24 5 -29 3 -34 25 56 37 149
2 22 7 51 9 65 15 86 39 470 29 470 -13 0 -83 -173 -90 -225 -2 -11 -6 -33 -9
-50 -4 -16 -7 -38 -8 -47 -1 -9 -5 -14 -9 -12 -5 3 -6 9 -3 14 4 7 -2 48 -19
135 -9 46 -50 139 -80 184 l-33 49 48 -22 c54 -26 128 -27 175 -4 l29 13 -2
95 c-2 143 -21 370 -37 457 -3 11 -8 43 -12 70 -3 26 -8 55 -9 64 -3 16 -44
205 -49 224 -2 6 -6 24 -10 40 -4 17 -11 41 -16 55 -4 14 -13 44 -19 68 -13
47 -25 51 -74 26 l-32 -17 21 24 c52 58 54 74 19 168 -72 190 -74 195 -145
346 -89 191 -302 552 -331 563 -5 2 -9 8 -9 13 0 33 -319 408 -428 503 -21 18
-21 18 -18 -1 3 -11 1 -25 -3 -32 -5 -8 -10 5 -14 31 -5 34 -15 51 -49 83 -62
57 -116 103 -178 155 -30 24 -56 48 -58 52 -2 5 -8 8 -12 8 -5 0 -42 24 -82
54 -55 41 -76 52 -86 44 -9 -8 -11 -7 -6 5 4 12 -8 25 -43 47 -51 32 -58 36
-115 75 -21 13 -38 22 -38 18 0 -3 -8 1 -17 9 -24 20 -143 89 -143 82 0 -3
-13 4 -29 16 -27 19 -90 49 -108 51 -5 1 -17 8 -28 15 -11 8 -23 14 -27 14
-12 0 3 -90 22 -136 11 -24 17 -44 14 -44 -8 0 48 -102 70 -129 21 -24 21 -24
1 -16 -107 42 -167 44 -232 5 l-35 -21 21 33 c38 59 72 140 96 231 l23 88 -37
15 c-161 69 -326 126 -496 173 -140 38 -173 42 -159 19 4 -7 3 -8 -5 -4 -6 4
-9 11 -6 16 8 12 -4 17 -55 25 -25 4 -67 11 -95 16 -50 10 -68 13 -148 24 -23
3 -58 8 -77 10 -47 7 -183 17 -250 18 -52 2 -55 1 -58 -23 -1 -14 -3 -31 -4
-37 -2 -18 -18 -16 -19 2 -1 8 -3 20 -4 25 -1 6 -3 16 -4 24 -1 12 -28 14
-147 13 -80 -1 -147 -3 -149 -5z m-1088 -284 c-3 -8 -6 -5 -6 6 -1 11 2 17 5
13 3 -3 4 -12 1 -19z m2106 -28 c3 -19 9 -46 12 -60 3 -14 11 -45 17 -70 6
-25 14 -49 17 -55 3 -5 6 -12 6 -15 2 -10 48 -96 68 -124 l20 -28 -44 24 c-54
30 -145 33 -198 5 -19 -9 -36 -17 -37 -17 -2 0 11 24 30 53 31 49 54 101 45
103 -2 0 1 7 8 15 12 15 43 152 43 190 0 31 7 20 13 -21z m-2087 -30 c9 -88
68 -248 105 -284 19 -20 8 -24 -23 -8 -53 26 -135 25 -191 -4 l-48 -24 19 27
c25 36 84 153 77 153 -3 0 -1 8 4 18 6 11 12 30 15 43 2 13 9 43 14 66 5 23 7
45 3 49 -3 4 0 5 8 2 7 -2 15 -19 17 -38z m692 33 c-7 -34 53 -225 90 -284 47
-73 48 -76 26 -57 -49 42 -166 47 -229 9 l-32 -19 33 56 c36 60 70 142 80 194
7 39 12 61 14 68 1 3 2 13 1 23 -1 9 3 17 8 17 6 0 10 -3 9 -7z m707 -60 c4
-32 10 -62 13 -68 4 -5 16 -37 28 -71 11 -34 35 -81 52 -106 l31 -45 -42 21
c-58 29 -149 28 -198 -1 l-36 -21 25 47 c14 25 29 48 32 51 10 8 57 160 65
208 4 23 10 42 15 42 4 0 11 -26 15 -57z m-1765 -398 c36 0 69 7 98 21 23 12
42 18 42 13 0 -5 -4 -9 -8 -9 -14 0 -79 -147 -100 -225 -23 -84 -22 -78 -22
-115 0 -16 -4 -30 -10 -30 -5 0 -9 3 -8 8 2 6 -11 102 -16 122 -19 71 -70 198
-85 210 -3 3 -12 15 -18 27 l-13 23 42 -22 c29 -15 61 -22 98 -23z m706 1 c44
0 72 7 98 22 39 23 39 21 -6 -45 -16 -24 -26 -43 -22 -43 3 0 2 -6 -3 -12 -10
-13 -42 -102 -48 -136 -2 -9 -7 -39 -11 -65 -3 -26 -8 -46 -11 -44 -4 4 -6 15
-19 87 -14 73 -72 220 -86 220 -5 0 -8 5 -8 12 0 6 -8 20 -17 31 -16 17 -12
16 27 -4 34 -18 60 -24 106 -23z m689 -2 c32 -2 64 4 89 17 48 23 63 24 41 3
-31 -31 -88 -158 -100 -225 -24 -124 -28 -133 -36 -79 -17 114 -49 203 -104
289 l-23 38 41 -21 c23 -11 65 -21 92 -22z m699 2 c38 0 74 6 95 17 42 21 47
17 21 -16 -43 -54 -84 -168 -104 -291 -8 -44 -13 -41 -21 11 -15 105 -55 213
-112 299 l-16 25 38 -22 c28 -17 54 -23 99 -23z m713 -2 c28 2 71 13 94 25
l42 22 -16 -23 c-64 -92 -111 -228 -122 -355 -4 -48 -12 -69 -13 -31 0 66 -31
210 -58 262 -7 16 -14 33 -14 38 0 5 -13 29 -30 53 -16 24 -30 46 -30 48 0 2
22 -6 48 -19 35 -17 62 -22 99 -20z m693 1 c33 0 69 7 89 18 19 9 36 15 38 13
2 -2 -9 -23 -25 -47 -45 -66 -89 -202 -95 -286 -1 -21 -17 -15 -18 7 -3 46
-13 96 -26 130 -8 20 -10 28 -12 43 0 7 -20 46 -44 87 l-42 75 40 -20 c25 -13
60 -20 95 -20z m-3499 -378 c-10 -9 -11 -8 -5 6 3 10 9 15 12 12 3 -3 0 -11
-7 -18z m2796 -109 c-3 -8 -6 -5 -6 6 -1 11 2 17 5 13 3 -3 4 -12 1 -19z
m-2789 -13 c1 -14 -2 -25 -6 -25 -7 0 -8 31 -3 48 3 8 7 -2 9 -23z m737 -205
c19 -57 54 -129 82 -168 l16 -23 -44 23 c-59 30 -138 30 -199 -2 -40 -20 -43
-21 -30 -4 8 10 18 21 21 24 23 20 92 211 103 285 2 17 5 35 6 40 1 6 8 -19
14 -55 7 -36 21 -90 31 -120z m2067 148 c0 -18 2 -37 3 -43 3 -11 5 -22 5 -30
1 -3 8 -24 16 -47 9 -24 17 -50 19 -58 5 -27 49 -110 57 -110 4 0 8 -7 8 -15
0 -8 5 -15 10 -15 6 0 10 -5 10 -10 0 -6 -18 -1 -41 11 -65 33 -133 31 -223
-7 -16 -6 -15 -1 8 29 16 20 25 37 22 37 -4 0 2 13 13 29 12 16 21 34 21 40 0
7 9 37 19 69 16 47 29 109 31 145 0 4 5 7 10 7 6 0 11 -15 12 -32z m-3488 -86
c17 -76 69 -193 105 -236 14 -15 9 -15 -29 5 -57 30 -140 31 -197 3 l-41 -20
29 46 c31 50 82 160 74 160 -2 0 0 12 6 26 5 15 12 45 15 67 7 60 18 67 26 17
4 -25 9 -55 12 -68z m692 78 c11 -101 73 -270 110 -301 27 -22 14 -26 -25 -7
-72 35 -162 29 -226 -15 l-30 -21 26 34 c42 58 92 171 106 240 7 37 11 66 12
83 1 27 23 15 27 -13z m1395 -5 c1 -34 4 -49 9 -60 1 -3 3 -8 4 -12 26 -98 57
-171 95 -222 l26 -34 -25 14 c-76 42 -150 45 -219 9 l-42 -21 25 38 c35 52 61
111 79 175 17 61 31 130 29 141 -1 4 3 7 8 7 6 0 11 -16 11 -35z m695 12 c10
-65 16 -90 33 -142 21 -66 45 -116 73 -157 23 -33 23 -46 1 -26 -46 38 -140
43 -210 11 -58 -26 -59 -26 -42 -12 43 36 108 196 123 302 7 44 17 56 22 24z
m1405 -4 c2 -82 56 -232 108 -301 l25 -34 -44 23 c-59 31 -173 30 -204 -1 -5
-5 -17 -10 -25 -10 -11 0 -10 5 6 23 42 45 95 181 108 275 7 55 24 71 26 25z
m695 4 c10 -63 15 -85 34 -146 11 -38 36 -94 55 -125 18 -31 31 -56 29 -56 -3
0 -19 7 -37 16 -46 24 -133 23 -184 -2 l-42 -21 11 21 c6 12 14 23 18 26 24
18 81 178 95 268 6 40 16 49 21 19z m-5256 -445 c30 0 67 7 82 14 35 18 54 19
40 2 -41 -51 -87 -168 -107 -273 l-11 -60 -12 40 c-6 22 -14 55 -17 73 -8 50
-42 133 -78 193 l-34 56 41 -23 c29 -15 58 -22 96 -22z m834 36 c-4 -7 -17
-26 -29 -43 -18 -25 -31 -50 -40 -75 -1 -3 -4 -12 -7 -20 -25 -70 -38 -122
-43 -158 -6 -52 -25 -93 -24 -52 1 14 -2 36 -5 50 -3 14 -8 36 -11 49 -11 58
-50 156 -80 201 -19 28 -33 50 -31 50 1 0 20 -9 42 -19 52 -26 147 -23 195 6
41 26 42 26 33 11z m556 -37 c25 -1 65 5 89 13 24 9 45 16 47 16 5 0 -18 -42
-27 -50 -8 -8 -40 -79 -44 -100 -2 -10 -8 -27 -13 -37 -6 -10 -13 -36 -17 -58
-18 -105 -23 -129 -25 -112 -1 9 -3 20 -4 25 -1 4 -6 30 -11 57 -11 62 -8 51
-28 110 -9 28 -34 80 -55 116 l-39 66 41 -22 c23 -12 61 -22 86 -24z m722 2
c31 3 71 12 89 21 39 20 45 16 20 -11 -39 -41 -92 -176 -106 -270 -8 -50 -25
-67 -25 -26 0 68 -59 231 -111 304 l-18 26 47 -24 c39 -20 57 -24 104 -20z
m603 11 c33 -18 135 -14 177 7 36 19 64 26 42 11 -43 -28 -122 -232 -128 -329
-2 -24 -12 -41 -13 -21 -1 17 -11 81 -14 88 -1 3 -1 8 0 12 0 3 -10 37 -23 75
-22 64 -43 107 -83 171 -17 26 -17 27 2 12 11 -8 29 -20 40 -26z m2297 -6
c-16 -24 -41 -73 -55 -110 -29 -70 -59 -197 -51 -210 3 -4 1 -8 -4 -8 -5 0
-13 24 -16 53 -4 28 -14 72 -23 97 -8 25 -16 50 -18 55 -6 24 -39 92 -56 117
-26 37 -24 39 19 18 50 -25 146 -21 193 7 19 12 35 22 37 22 2 1 -10 -18 -26
-41z m-1509 -7 c29 2 66 11 84 20 18 10 35 14 38 9 3 -5 1 -12 -5 -15 -22 -13
-83 -152 -95 -214 -2 -13 -6 -30 -9 -39 -3 -9 -7 -35 -11 -56 -3 -22 -7 -41
-9 -43 -2 -2 -7 25 -11 59 -8 62 -11 76 -14 81 -2 1 -5 13 -7 27 -3 14 -24 63
-47 110 -23 47 -43 88 -45 92 -2 4 15 -2 38 -13 29 -14 58 -20 93 -18z m587
31 c0 -14 57 -29 111 -29 33 -1 68 7 92 18 20 11 37 15 37 10 0 -5 -4 -12 -9
-15 -29 -18 -96 -193 -107 -276 -8 -65 -22 -99 -22 -54 -1 90 -67 277 -120
337 -14 15 -14 17 1 17 10 0 17 -4 17 -8z m1414 -11 c44 -25 150 -24 191 3 30
19 44 16 22 -5 -40 -40 -109 -233 -116 -323 -2 -21 -13 5 -18 41 -7 55 -53
195 -69 214 -8 8 -14 19 -14 23 0 4 -9 21 -21 37 -24 34 -21 35 25 10z m-1961
-726 c12 -38 36 -93 54 -122 18 -31 26 -53 19 -53 -6 0 -16 4 -21 9 -27 27
-139 31 -186 7 -47 -23 -53 -20 -26 17 52 70 100 212 107 317 1 14 8 -4 16
-40 8 -36 24 -96 37 -135z m664 162 c4 -42 14 -92 26 -127 6 -19 12 -37 12
-40 9 -35 37 -92 68 -137 15 -24 24 -43 18 -43 -5 0 -11 4 -13 9 -4 11 -95 38
-123 36 -33 -1 -115 -27 -115 -36 0 -5 -4 -9 -10 -9 -5 0 6 25 25 55 19 30 35
61 35 70 0 8 5 15 12 15 6 0 9 3 5 6 -3 3 3 29 13 58 18 52 36 152 31 171 -1
6 1 6 5 2 5 -4 9 -18 11 -30z m-4199 -5 c0 -9 3 -28 6 -42 3 -14 8 -34 10 -45
13 -61 57 -175 68 -175 4 0 8 -5 8 -11 0 -6 9 -24 20 -40 l21 -28 -48 21 c-60
26 -127 26 -188 -1 l-45 -20 24 32 c54 72 106 224 110 319 0 22 15 13 14 -10z
m707 -42 c10 -69 53 -190 86 -241 16 -25 29 -48 29 -51 0 -3 -18 4 -41 15 -23
11 -58 20 -79 20 -46 0 -130 -22 -130 -34 0 -5 -5 -9 -10 -9 -9 0 13 44 30 60
16 15 67 147 77 199 3 14 6 33 8 41 2 8 4 29 5 45 1 41 16 14 25 -45z m1392
58 c3 -49 17 -118 34 -166 28 -78 74 -168 94 -185 12 -10 4 -8 -50 17 -22 10
-56 19 -77 19 -44 0 -128 -22 -128 -34 0 -5 -4 -9 -10 -9 -5 0 3 19 19 43 51
76 93 196 107 302 4 30 10 37 11 13z m702 -30 c-6 -36 49 -201 88 -266 18 -30
33 -56 33 -57 0 -1 -18 7 -40 18 -55 27 -133 26 -188 -2 l-43 -22 25 38 c29
44 79 153 70 153 -4 0 -2 6 4 13 11 14 36 122 34 152 -1 18 0 18 9 3 5 -10 9
-24 8 -30z m2096 6 c14 -96 64 -236 105 -294 27 -38 26 -40 -17 -19 -58 28
-115 29 -177 4 l-54 -22 33 51 c28 45 44 78 51 111 1 6 9 26 17 45 8 19 18 63
22 98 7 67 13 74 20 26z m698 6 c3 -14 8 -43 12 -65 11 -65 66 -208 86 -225 3
-3 11 -15 18 -27 10 -19 9 -22 -4 -17 -8 4 -15 9 -15 13 0 4 -6 8 -12 9 -7 1
-33 5 -57 10 -45 10 -92 2 -144 -25 l-28 -14 24 38 c39 62 69 133 83 196 1 4
3 9 4 12 4 8 6 17 14 73 9 57 12 61 19 22z m-4187 -27 c10 -73 11 -77 28 -116
8 -20 13 -37 10 -37 -3 0 11 -31 32 -70 20 -38 41 -70 46 -70 5 0 6 -5 2 -11
-4 -7 -9 -8 -13 -1 -3 5 -29 17 -57 25 -61 18 -127 9 -183 -25 l-36 -21 21 24
c61 69 124 236 127 337 1 31 16 7 23 -35z m2364 -413 c61 -21 133 -12 188 22
l36 22 -26 -34 c-66 -89 -114 -230 -122 -363 -2 -20 -5 -39 -8 -42 -3 -3 -5 5
-4 17 2 32 -22 164 -40 217 -21 61 -60 145 -76 162 -7 8 -20 23 -28 34 -15 20
-14 20 8 1 12 -10 45 -27 72 -36z m705 -3 c51 -18 138 -6 179 24 l31 23 -17
-24 c-57 -82 -122 -262 -120 -332 0 -10 -3 -20 -7 -22 -4 -3 -8 0 -8 7 -5 101
-51 236 -120 345 -17 27 -17 27 3 10 11 -10 38 -24 59 -31z m-4882 -4 c41 -10
98 -3 144 17 l45 20 -24 -33 c-48 -65 -104 -225 -108 -307 -1 -35 -16 -7 -23
45 -9 65 -45 164 -83 233 l-36 63 32 -16 c18 -9 42 -19 53 -22z m699 0 c64
-11 105 -4 162 24 l28 15 -25 -34 c-42 -55 -89 -178 -102 -262 -3 -21 -10 -46
-15 -55 -7 -13 -9 -10 -10 15 0 17 -6 52 -14 77 -8 26 -12 47 -11 47 8 0 -56
143 -75 167 -27 35 -25 47 4 27 14 -8 40 -18 58 -21z m698 1 c53 -11 111 -5
148 17 45 26 46 25 19 -18 -60 -97 -109 -254 -109 -348 0 -25 -1 -26 -8 -10
-4 11 -10 43 -13 70 -10 82 -64 247 -87 265 -8 6 -30 46 -30 55 0 3 10 -1 23
-9 12 -8 38 -17 57 -22z m750 -7 c25 0 67 10 93 21 l47 21 -17 -27 c-10 -15
-20 -29 -24 -32 -9 -8 -68 -161 -74 -195 -3 -16 -9 -47 -12 -67 -3 -21 -9 -38
-13 -38 -5 0 -7 8 -6 18 6 40 -48 209 -89 277 -19 32 -35 59 -35 60 0 2 19 -6
42 -17 24 -12 63 -21 88 -21z m707 2 c30 0 60 5 67 10 6 5 25 15 41 21 l30 11
-23 -23 c-12 -14 -22 -28 -22 -32 0 -4 -10 -22 -22 -39 -13 -18 -21 -32 -19
-32 2 0 -7 -32 -19 -72 -24 -81 -28 -98 -29 -132 -1 -35 -19 -14 -25 29 -12
84 -60 209 -104 267 l-24 33 47 -21 c30 -14 67 -21 102 -20z m573 32 c0 -13
90 -36 134 -33 22 1 57 11 78 22 21 11 38 18 38 16 0 -2 -16 -30 -35 -62 -35
-58 -71 -156 -81 -223 -12 -72 -20 -78 -29 -20 -5 29 -9 56 -10 59 -13 48 -66
184 -74 190 -16 13 -40 60 -31 60 5 0 10 -4 10 -9z m2191 -33 c46 -3 106 10
138 30 l26 17 -22 -35 c-12 -19 -31 -55 -43 -80 -24 -50 -71 -216 -63 -223 2
-3 0 -8 -6 -12 -11 -6 -12 -3 -16 45 -5 49 -55 186 -90 243 l-34 57 38 -19
c21 -11 54 -21 72 -23z m651 12 c42 -20 119 -15 166 9 43 22 51 22 29 -1 -31
-32 -92 -179 -104 -248 -3 -19 -7 -42 -8 -50 -2 -8 -4 -24 -4 -34 -1 -11 -3
-17 -5 -15 -5 5 -8 19 -21 99 -4 25 -10 50 -14 55 -3 6 -6 12 -6 15 -4 35 -38
106 -84 179 -14 22 -14 23 4 14 11 -6 32 -16 47 -23z m-4816 -506 c1 -9 0 -13
-4 -10 -3 4 -7 14 -8 22 -1 9 0 13 4 10 3 -4 7 -14 8 -22z m2808 -89 c12 -88
60 -214 104 -272 26 -35 19 -43 -14 -18 -10 8 -29 15 -41 15 -12 0 -24 4 -27
9 -9 13 -117 -8 -156 -31 -33 -21 -34 -21 -17 -2 9 12 17 26 17 32 0 7 4 12 9
12 9 0 39 65 65 142 19 57 25 86 33 158 6 48 7 51 14 27 4 -15 10 -47 13 -72z
m-4206 48 c-3 -74 69 -274 121 -336 10 -13 2 -12 -39 4 -69 26 -116 26 -174 0
-27 -11 -51 -19 -54 -16 -3 3 0 5 5 5 26 0 104 181 119 276 3 22 8 46 9 54 2
8 4 18 4 23 2 15 10 6 9 -10z m1403 5 c0 -13 6 -53 13 -93 2 -11 6 -27 9 -35
40 -115 54 -145 82 -188 l33 -50 -34 19 c-75 42 -169 38 -244 -10 l-25 -16 27
35 c50 67 116 229 102 252 -3 4 -1 8 4 8 6 0 10 6 9 13 -1 42 4 77 13 77 6 0
10 -6 11 -12z m4195 -15 c1 -42 10 -86 29 -145 16 -51 54 -138 65 -148 3 -3
14 -18 24 -35 19 -29 19 -30 0 -14 -54 46 -169 52 -230 13 -30 -21 -31 -8 0
37 20 29 91 208 86 217 -3 4 12 87 17 95 7 11 8 9 9 -20z m-4887 -63 c13 -72
15 -76 26 -105 27 -68 50 -114 71 -142 20 -27 22 -32 7 -26 -10 3 -24 11 -32
17 -26 20 -151 13 -199 -11 l-44 -21 19 21 c10 12 21 24 24 27 3 3 19 34 36
70 34 73 60 170 62 230 2 40 17 9 30 -60z m4195 18 c11 -91 67 -227 116 -285
14 -17 -1 -16 -26 1 -23 16 -120 36 -130 27 -3 -3 -9 -6 -12 -6 -24 -2 -70
-19 -86 -33 -18 -15 -17 -13 2 18 58 91 109 235 111 313 1 45 18 22 25 -35z
m1392 28 c10 -92 47 -204 93 -278 l29 -47 -46 21 c-26 11 -62 20 -80 19 -48
-1 -114 -20 -136 -39 -11 -10 -4 7 15 38 52 84 77 146 95 235 5 22 9 43 10 48
1 4 2 15 3 24 1 23 14 8 17 -21z m-4190 -23 c14 -94 58 -211 102 -270 27 -36
20 -42 -17 -17 -12 9 -51 19 -84 21 -51 4 -70 1 -107 -19 l-46 -23 33 54 c18
30 42 79 54 110 23 63 49 178 41 186 -3 3 0 5 6 5 6 0 14 -21 18 -47z m695 30
c2 -49 27 -145 55 -211 7 -18 12 -34 11 -35 -1 -2 13 -22 32 -45 l33 -43 -50
20 c-28 11 -66 21 -84 22 -40 3 -138 -28 -138 -43 0 -6 -3 -8 -7 -4 -5 4 -1
13 7 19 25 20 91 165 106 232 10 48 16 81 17 93 1 19 17 14 18 -5z m696 5 c3
-85 70 -276 108 -308 29 -24 15 -29 -30 -9 -64 28 -143 26 -192 -7 -35 -22
-36 -17 -5 29 32 48 78 156 87 207 1 3 4 26 9 53 6 42 22 66 23 35z m-3939
-436 c35 -23 131 -20 180 6 l41 21 -35 -57 c-45 -74 -90 -217 -94 -295 0 -5
-5 -5 -10 -2 -6 4 -8 10 -6 14 18 28 -83 297 -123 329 -14 10 -13 11 4 5 11
-3 30 -13 43 -21z m904 1 c-25 -35 -73 -130 -77 -153 -2 -9 -10 -39 -18 -66
-17 -59 -17 -57 -17 -91 0 -49 -10 -25 -30 74 -5 23 -16 58 -24 77 -8 20 -13
36 -10 36 5 0 -52 107 -69 128 -13 16 -7 15 43 -7 52 -23 124 -20 177 8 21 11
39 20 41 21 2 0 -5 -12 -16 -27z m578 -16 c37 0 69 7 98 22 23 12 42 17 42 11
0 -5 -4 -10 -8 -10 -9 0 -63 -92 -63 -107 -1 -5 -4 -12 -8 -18 -5 -5 -12 -23
-16 -40 -5 -16 -9 -34 -11 -40 -16 -53 -30 -125 -26 -130 3 -3 0 -5 -6 -5 -7
0 -12 8 -13 18 -4 78 -42 199 -89 278 l-37 61 41 -20 c26 -13 62 -20 96 -20z
m605 22 c49 -29 136 -31 192 -3 43 22 44 20 11 -29 -22 -31 -64 -131 -74 -173
-3 -16 -11 -58 -18 -94 l-12 -65 -9 45 c-5 25 -9 52 -10 60 -3 47 -59 184 -99
243 -14 20 -24 37 -21 37 2 0 20 -9 40 -21z m795 -22 c37 0 69 7 98 22 l42 21
-34 -53 c-19 -30 -45 -85 -58 -123 -27 -84 -23 -69 -33 -132 -4 -29 -11 -55
-16 -58 -5 -3 -6 2 -3 10 3 8 2 21 -2 28 -4 6 -9 26 -11 43 -6 53 -71 227 -92
245 -3 3 -13 14 -21 24 -13 17 -10 16 30 -4 30 -15 62 -23 100 -23z m695 0
c29 0 71 9 99 22 44 19 48 19 33 3 -51 -56 -118 -241 -121 -334 -1 -30 -15 -5
-20 37 -14 106 -47 191 -111 288 l-17 26 44 -21 c27 -14 62 -22 93 -21z m620
15 c63 -25 116 -22 198 13 15 6 12 -3 -12 -42 -17 -27 -38 -70 -46 -94 -8 -24
-18 -51 -22 -59 -8 -19 -8 -22 -22 -94 -6 -32 -8 -62 -6 -66 3 -5 2 -11 -3
-14 -4 -2 -9 11 -10 31 -2 20 -5 40 -7 43 -3 4 -7 25 -11 46 -3 20 -11 49 -16
63 -6 14 -12 32 -14 40 -5 27 -67 141 -76 141 -5 0 -6 5 -2 11 4 6 9 7 13 2 3
-5 20 -14 36 -21z m674 14 c29 -35 133 -40 198 -11 l51 23 -28 -45 c-32 -49
-79 -163 -85 -202 -3 -14 -7 -42 -11 -61 -3 -19 -7 -40 -8 -47 -4 -23 -12 -23
-14 0 -2 42 -20 122 -37 167 -9 25 -17 50 -18 55 -5 22 -61 115 -69 115 -4 0
-8 5 -8 10 0 15 16 12 29 -4z m811 -29 c37 0 70 8 98 22 l41 21 -31 -46 c-27
-41 -64 -122 -73 -164 -2 -8 -9 -30 -14 -49 -6 -19 -8 -38 -5 -42 3 -5 0 -9
-6 -9 -6 0 -9 -4 -6 -9 4 -5 2 -20 -3 -33 l-10 -23 -2 25 c-7 108 -53 240
-112 323 l-20 29 44 -23 c30 -15 61 -22 99 -22z m830 35 c0 -5 -8 -17 -18 -28
-31 -33 -86 -170 -98 -239 -2 -17 -9 -44 -13 -60 -7 -23 -10 -26 -12 -10 -4
33 -7 50 -9 55 -1 3 -3 16 -6 30 -2 14 -10 41 -18 60 -8 19 -15 40 -16 45 -3
19 -51 110 -67 128 -20 22 -15 21 44 -2 64 -24 159 -17 191 15 15 16 22 18 22
6z m-5723 -590 c8 -59 37 -160 59 -205 13 -27 24 -53 24 -58 0 -6 11 -22 25
-37 14 -15 25 -31 25 -37 0 -6 -3 -5 -8 1 -4 7 -29 19 -57 29 -60 20 -133 14
-185 -17 -33 -19 -34 -19 -17 -1 9 11 17 23 17 27 0 4 8 20 19 34 36 52 80
195 83 274 2 34 11 27 15 -10z m1414 -69 c2 -18 7 -33 11 -33 4 0 8 -9 8 -20
0 -32 33 -108 73 -167 30 -46 26 -53 -13 -26 -33 24 -143 24 -189 0 -19 -9
-35 -16 -37 -14 -2 1 10 23 25 47 26 43 66 142 77 192 4 20 22 110 25 127 2
10 17 -71 20 -106z m1390 41 c5 -32 17 -81 27 -109 9 -27 16 -52 17 -55 2 -15
51 -103 67 -120 23 -24 7 -26 -28 -3 -17 11 -46 16 -87 16 -74 0 -103 -6 -130
-30 l-21 -18 19 30 c69 110 117 249 115 334 0 40 9 18 21 -45z m704 -33 c-9
-8 60 -180 92 -230 l35 -54 -38 23 c-66 38 -127 37 -228 -5 -15 -7 -13 1 12
38 18 25 32 48 32 52 0 3 9 26 20 50 11 24 28 84 37 134 l17 91 12 -48 c7 -26
11 -49 9 -51z m692 69 c6 -90 79 -287 117 -319 9 -8 16 -19 16 -25 0 -8 -2 -8
-8 0 -4 7 -29 19 -57 29 -59 20 -133 14 -182 -15 -39 -23 -41 -19 -9 23 47 62
83 161 101 272 7 45 12 65 18 65 1 0 3 -14 4 -30z m-4863 -150 c23 -73 39
-107 71 -154 21 -31 23 -37 8 -31 -99 42 -161 43 -226 5 l-37 -22 34 51 c19
28 44 77 56 108 22 60 26 73 36 133 4 19 8 42 9 50 2 8 4 20 5 25 2 6 8 -17
14 -50 7 -33 20 -85 30 -115z m1371 104 c13 -89 57 -202 101 -261 32 -42 30
-46 -11 -22 -50 30 -142 34 -191 9 -37 -19 -71 -28 -48 -12 33 21 109 203 117
280 2 17 6 35 10 38 3 3 3 13 1 22 -5 16 -5 16 5 1 6 -9 13 -34 16 -55z m1409
-49 c10 -59 51 -152 102 -231 l19 -29 -35 25 c-49 35 -158 36 -215 1 -33 -20
-37 -21 -23 -5 28 32 76 138 97 213 11 39 17 71 15 71 -3 0 -2 6 3 13 4 6 8
17 9 22 5 44 9 32 28 -80z m3481 85 c-2 -4 2 -30 10 -59 7 -28 13 -52 13 -54
-6 -16 65 -171 89 -195 23 -23 8 -25 -34 -4 -49 25 -133 23 -189 -5 l-40 -19
34 50 c32 47 48 79 58 116 36 128 43 159 44 180 0 19 2 22 9 10 6 -8 8 -17 6
-20z m-697 -2 c0 -70 53 -224 98 -284 26 -36 22 -50 -10 -29 -11 8 -43 17 -71
20 -47 6 -69 2 -150 -30 -19 -8 -19 -7 1 16 37 42 88 164 101 239 3 19 7 42 8
50 2 8 4 21 4 28 2 22 19 13 19 -10z m-5276 -444 c27 -4 58 0 83 9 22 8 49 18
60 22 11 4 16 3 10 -2 -30 -25 -93 -164 -111 -244 -3 -13 -7 -31 -9 -39 -2 -8
-4 -25 -4 -37 -1 -33 -18 -28 -19 5 -4 66 -74 270 -101 292 -3 3 -12 13 -19
22 -12 15 -8 14 27 -3 22 -11 60 -22 83 -25z m1412 2 c43 -1 73 5 103 20 l42
21 -34 -62 c-54 -96 -100 -253 -98 -333 1 -39 -10 -14 -14 31 -8 106 -58 249
-120 343 l-16 25 38 -22 c27 -16 54 -23 99 -23z m706 -1 c37 0 69 7 98 21 23
12 42 18 42 13 0 -5 -4 -9 -9 -9 -7 0 -74 -122 -77 -139 0 -4 -3 -13 -6 -21
-20 -54 -34 -114 -36 -152 -2 -27 -18 -40 -19 -15 -3 87 -58 244 -112 315
l-25 34 44 -23 c31 -16 62 -23 100 -24z m694 1 c38 0 74 6 95 17 19 9 37 14
40 11 3 -4 0 -9 -6 -11 -7 -3 -13 -11 -13 -19 0 -8 -5 -14 -11 -14 -5 0 -7 -4
-4 -10 3 -5 3 -10 -2 -10 -4 0 -18 -26 -29 -57 -12 -32 -25 -67 -30 -78 -10
-27 -9 -24 -18 -82 -8 -55 -25 -81 -27 -41 -1 33 -7 64 -26 127 -9 31 -17 58
-18 61 -2 10 -55 106 -72 128 l-16 23 38 -22 c29 -17 54 -23 99 -23z m700 0
c44 -1 73 6 104 22 l43 22 -24 -32 c-46 -61 -88 -173 -108 -284 l-13 -69 -12
72 c-19 110 -55 205 -111 289 l-16 25 38 -23 c29 -16 55 -22 99 -22z m694 1
c69 0 109 9 129 29 24 23 29 7 6 -19 -21 -23 -63 -108 -82 -168 -15 -47 -25
-93 -35 -157 -6 -46 -16 -53 -16 -11 0 44 -34 178 -60 235 -11 25 -33 65 -49
89 l-30 44 40 -21 c26 -13 59 -20 97 -21z m641 5 c52 -12 129 -5 168 15 l42
22 -33 -52 c-34 -54 -65 -125 -73 -166 -2 -14 -6 -28 -9 -33 -3 -4 -7 -24 -10
-45 -9 -79 -17 -80 -30 -5 -7 40 -16 81 -20 90 -4 9 -8 19 -9 22 -10 40 -33
93 -55 125 -44 65 -45 68 -15 49 16 -10 35 -20 44 -22z m1374 9 c45 -23 145
-20 190 6 l37 22 -39 -72 c-42 -77 -77 -179 -87 -255 -3 -26 -7 -48 -9 -50 -1
-1 -8 33 -15 75 -7 43 -19 90 -27 106 -7 15 -11 27 -8 27 8 0 -44 100 -66 129
-11 13 -19 29 -19 35 0 7 3 7 8 1 4 -6 19 -16 35 -24z m-5588 -2 c31 -23 195
-13 195 13 0 4 4 8 10 8 5 0 -9 -34 -31 -74 -22 -41 -41 -84 -42 -95 -1 -12
-6 -21 -11 -21 -5 0 -7 -3 -3 -6 3 -3 2 -16 -3 -29 -8 -22 -22 -95 -23 -122 0
-7 -4 -13 -8 -13 -4 0 -7 8 -7 18 2 69 -77 296 -112 317 -5 3 -10 10 -10 15 0
10 27 3 45 -11z m4883 5 c59 -29 167 -25 207 8 25 22 21 3 -10 -47 -20 -30
-33 -55 -31 -55 3 0 -2 -17 -11 -37 -9 -21 -26 -81 -39 -133 -17 -74 -23 -87
-25 -60 -5 86 -53 228 -98 295 -17 25 -29 45 -27 45 2 0 17 -7 34 -16z m-4097
-497 c-10 -9 -11 -8 -5 6 3 10 9 15 12 12 3 -3 0 -11 -7 -18z m2804 -26 c-10
-54 46 -243 100 -333 19 -32 30 -58 25 -58 -6 0 -10 4 -10 8 0 15 -85 38 -132
36 -26 -1 -65 -11 -88 -23 -39 -20 -67 -29 -44 -13 52 34 126 242 136 379 1
17 5 30 9 27 4 -2 6 -13 4 -23z m-2796 -13 c-1 -21 3 -52 16 -103 2 -11 9 -39
15 -62 11 -47 51 -136 63 -141 4 -2 7 -8 7 -14 0 -5 10 -24 22 -41 19 -28 19
-30 2 -17 -65 53 -162 60 -238 17 l-47 -26 30 41 c17 23 44 76 61 118 29 76
35 100 46 173 5 35 11 68 13 75 4 11 11 -3 10 -20z m-1396 -63 c3 -22 17 -76
32 -120 25 -76 40 -107 80 -169 l18 -28 -38 22 c-52 29 -131 33 -186 9 -45
-21 -58 -20 -37 2 46 50 105 217 111 317 2 33 15 12 20 -33z m2108 -33 c7 -40
16 -75 21 -78 4 -3 8 -13 8 -23 0 -18 42 -105 73 -152 l18 -27 -39 19 c-68 34
-171 30 -214 -9 -24 -20 -23 -1 1 29 41 53 75 144 102 274 6 33 13 56 14 50 2
-5 9 -43 16 -83z m687 83 c-3 -4 -1 -25 4 -48 5 -23 11 -51 12 -62 3 -23 26
-95 35 -110 3 -5 6 -16 7 -24 2 -7 18 -37 38 -66 l35 -52 -41 19 c-60 29 -131
30 -184 3 -25 -13 -44 -20 -42 -16 2 4 20 41 40 82 33 66 44 92 49 117 1 4 6
18 11 32 5 14 12 39 14 55 3 17 7 39 8 50 4 25 4 25 13 25 3 0 4 -2 1 -5z
m2797 -41 c10 -80 65 -228 107 -286 22 -32 19 -34 -23 -13 -27 15 -105 21
-155 12 -12 -2 -34 -11 -49 -21 l-28 -19 23 39 c13 22 29 48 36 59 20 31 61
165 69 223 8 60 13 62 20 6z m-4894 14 c3 -89 74 -283 113 -310 23 -16 -3 -17
-35 -1 -48 24 -136 22 -187 -5 l-41 -21 33 52 c39 61 82 180 92 255 7 52 23
72 25 30z m2797 -16 c12 -93 63 -230 108 -290 l26 -34 -43 23 c-58 29 -140 30
-197 2 -23 -11 -42 -17 -42 -13 0 5 4 10 8 12 20 7 106 194 110 238 0 3 3 27
7 53 8 51 17 54 23 9z m1402 21 c2 -80 44 -209 93 -286 l35 -54 -41 20 c-43
20 -131 29 -157 16 -8 -4 -30 -15 -49 -23 l-33 -16 16 23 c23 30 84 158 90
188 3 13 9 39 15 57 11 38 11 35 11 67 0 28 20 35 20 8z m-4617 -444 c55 -13
112 -8 158 15 18 9 33 16 35 16 1 0 -13 -23 -31 -51 -41 -61 -92 -210 -94
-276 -1 -24 -17 -33 -18 -10 -1 12 -7 44 -19 102 -10 49 -56 158 -79 190 -35
48 -42 63 -19 43 10 -9 41 -22 67 -29z m883 11 c-24 -29 -80 -130 -71 -130 2
0 -3 -17 -11 -37 -18 -42 -22 -60 -31 -126 -7 -56 -19 -51 -28 13 -13 93 -66
227 -114 284 -9 10 -11 17 -6 15 6 -3 21 -9 35 -15 78 -34 142 -31 215 9 40
22 41 22 11 -13z m454 13 c0 4 11 0 25 -9 13 -9 51 -18 83 -21 46 -4 67 -1
102 16 50 24 57 23 32 -5 -37 -40 -92 -188 -108 -289 -3 -22 -7 -45 -8 -52 -4
-26 -12 -20 -12 10 -2 93 -55 253 -109 323 -14 18 -25 36 -25 41 0 4 5 1 10
-7 5 -8 10 -12 10 -7z m1654 2 c-4 -8 -10 -15 -14 -15 -4 0 -10 -8 -14 -17 -3
-10 -15 -33 -26 -50 -11 -18 -17 -33 -14 -33 4 0 2 -6 -3 -12 -21 -26 -55
-152 -54 -200 0 -10 -4 -18 -10 -18 -5 0 -9 8 -10 18 -3 76 -72 268 -110 307
-19 19 -8 23 23 8 17 -9 48 -18 70 -20 46 -6 133 13 149 33 15 18 20 18 13 -1z
m692 -7 c-55 -75 -113 -235 -119 -325 -1 -23 -5 -39 -8 -37 -5 3 -22 99 -19
106 1 2 -4 17 -10 33 -7 17 -13 38 -16 49 -6 32 -60 140 -79 159 -25 26 -16
28 28 7 52 -26 151 -22 198 7 44 27 45 27 25 1z m592 -25 c34 3 68 9 75 14 6
6 20 13 30 16 14 5 13 0 -7 -26 -47 -62 -105 -227 -106 -299 0 -27 -16 -41
-18 -15 -2 36 -22 127 -35 162 -19 50 -24 68 -25 79 0 5 -5 12 -10 15 -5 3
-17 21 -26 39 -9 17 -20 32 -25 32 -4 0 -8 6 -8 13 0 9 15 5 46 -11 38 -20 57
-23 109 -19z m-2183 10 c43 -16 140 -12 158 6 6 6 17 11 24 11 8 0 2 -18 -17
-49 -17 -26 -30 -53 -30 -60 0 -6 -5 -11 -11 -11 -5 0 -8 -3 -5 -8 2 -4 -4
-31 -14 -59 -18 -51 -36 -149 -31 -168 1 -5 -1 -6 -6 -2 -4 5 -8 18 -9 30 -1
12 -4 33 -8 47 -3 14 -8 34 -10 45 -1 11 -6 27 -9 35 -3 8 -13 38 -23 65 -19
52 -59 124 -78 138 -6 5 -2 6 9 2 11 -4 38 -14 60 -22z m2849 -9 c37 -2 74 3
95 13 52 22 69 27 49 13 -10 -6 -18 -16 -18 -22 0 -6 -6 -19 -14 -27 -22 -26
-66 -148 -81 -222 -14 -74 -24 -98 -26 -58 -2 53 -9 85 -35 154 -4 11 -9 29
-11 40 -2 11 -19 45 -38 77 -42 68 -43 76 -7 52 17 -11 50 -19 86 -20z m-3461
-629 c8 -48 51 -157 82 -209 l33 -56 -41 22 c-67 34 -165 24 -221 -21 -17 -14
-17 -11 3 19 51 79 97 206 117 325 l7 40 8 -50 c5 -27 10 -59 12 -70z m2103
-22 c10 -46 22 -83 26 -83 4 0 8 -7 8 -15 0 -17 38 -97 50 -105 4 -3 13 -16
20 -30 12 -24 12 -24 -6 -9 -53 44 -135 54 -209 24 l-56 -23 16 21 c13 19 32
56 76 152 13 29 39 145 40 180 l1 30 8 -30 c4 -16 16 -67 26 -112z m691 55
c16 -87 15 -84 32 -128 23 -60 45 -104 71 -139 l24 -34 -42 22 c-54 28 -135
31 -185 7 -40 -20 -56 -17 -35 5 24 25 81 163 94 227 2 12 7 34 10 50 4 15 6
37 6 50 0 41 11 15 25 -60z m-3508 45 c-1 -29 29 -150 42 -175 7 -13 11 -23
10 -23 -8 0 37 -87 61 -118 18 -22 23 -35 14 -31 -9 3 -16 9 -16 13 0 12 -93
35 -133 33 -20 0 -57 -10 -82 -21 l-44 -19 33 51 c32 51 72 149 83 205 3 15 6
34 8 42 2 8 4 25 4 38 1 26 20 31 20 5z m1415 -84 c25 -102 56 -176 93 -226
l23 -32 -47 21 c-60 27 -123 26 -188 -2 l-50 -21 20 23 c36 41 87 154 101 220
2 13 7 37 10 53 4 17 6 38 6 49 -2 36 9 7 32 -85z m692 21 c9 -40 20 -84 25
-98 6 -15 9 -27 8 -27 -5 0 46 -94 67 -122 l25 -33 -44 19 c-69 30 -119 31
-180 6 l-55 -22 33 51 c38 60 81 180 91 254 4 29 9 51 11 48 2 -2 11 -36 19
-76z m281 -386 c58 -12 73 -11 125 7 64 23 65 23 46 2 -19 -22 -55 -93 -75
-147 -16 -44 -20 -62 -29 -116 -7 -42 -23 -74 -24 -50 -7 92 -64 247 -117 317
l-24 33 35 -21 c19 -11 47 -22 63 -25z m727 -5 c28 -3 56 -4 61 -1 6 4 19 8
30 9 10 2 30 11 43 19 32 21 37 13 12 -19 -11 -14 -20 -30 -20 -36 0 -6 -4
-11 -9 -11 -5 0 -11 -8 -14 -17 -3 -10 -15 -45 -27 -77 -20 -55 -36 -124 -45
-197 -5 -38 -12 -48 -14 -17 -2 46 -8 84 -26 153 -18 74 -68 189 -85 200 -5 3
-15 15 -20 25 -10 18 -8 18 26 -2 21 -12 60 -25 88 -29z m-2164 20 c53 -28
125 -28 179 -2 23 11 44 17 47 12 3 -5 1 -9 -4 -9 -33 0 -137 -292 -123 -345
1 -5 -1 -6 -5 -2 -9 8 -12 24 -18 77 -2 19 -9 48 -15 63 -6 16 -11 35 -11 42
0 19 -77 167 -93 177 -25 16 4 7 43 -13z m779 -23 c23 -2 44 0 47 5 3 5 9 7
14 4 5 -3 25 4 44 15 38 21 45 17 22 -15 -49 -70 -93 -187 -103 -270 -7 -65
-18 -64 -28 4 -10 71 -59 204 -92 253 l-31 46 43 -19 c24 -11 62 -21 84 -23z
m1416 -396 c3 -5 1 -10 -4 -10 -6 0 -11 5 -11 10 0 6 2 10 4 10 3 0 8 -4 11
-10z m0 -59 c3 -5 2 -12 -3 -15 -5 -3 -9 1 -9 9 0 17 3 19 12 6z"/>
<path d="M1849 6674 c-6 -16 -12 -33 -13 -39 -2 -5 -8 -23 -15 -40 -15 -36
-63 -176 -65 -190 -1 -5 -5 -16 -10 -23 -4 -7 -6 -15 -3 -18 8 -8 53 70 76
130 24 66 54 196 46 204 -2 3 -10 -8 -16 -24z"/>
</g>
</svg>
