<?xml version="1.0" standalone="no"?>
<!DOCTYPE svg PUBLIC "-//W3C//DTD SVG 20010904//EN"
 "http://www.w3.org/TR/2001/REC-SVG-20010904/DTD/svg10.dtd">
<svg version="1.0" xmlns="http://www.w3.org/2000/svg"
 width="700.000000pt" height="700.000000pt" viewBox="0 0 700.000000 700.000000"
 preserveAspectRatio="xMidYMid meet">
<metadata>
Created by potrace 1.11, written by Peter Selinger 2001-2013
</metadata>
<g transform="translate(0.000000,700.000000) scale(0.100000,-0.100000)"
fill="#000000" stroke="none">
<path d="M0 6099 l0 -901 28 22 c123 96 239 153 387 191 123 31 399 34 515 5
203 -51 322 -157 371 -331 21 -74 17 -340 -5 -362 -4 -5 -490 -8 -569 -4 -15
1 -17 7 -13 34 3 19 6 58 7 88 3 125 -27 173 -110 172 -91 -1 -155 -56 -201
-173 -48 -121 -104 -397 -105 -510 0 -73 3 -90 23 -117 43 -61 148 -55 216 13
32 32 106 167 106 193 0 8 66 11 208 11 l207 1 90 87 c50 48 127 118 172 156
51 44 83 79 87 95 2 14 28 136 56 271 28 135 56 271 62 303 l12 57 429 0 430
0 196 99 c108 54 234 115 281 136 47 21 103 46 125 55 193 86 574 223 830 300
117 35 420 115 470 124 11 2 63 13 115 24 103 22 230 45 400 71 88 14 186 24
372 40 124 11 543 11 643 0 220 -24 378 -52 522 -96 46 -13 86 -22 90 -20 5 3
8 198 7 434 l-1 428 -3226 3 -3227 2 0 -901z"/>
<path d="M6771 6974 c-12 -15 -21 -32 -22 -38 0 -6 -2 -22 -5 -35 -6 -36 14
-88 43 -111 49 -38 137 -17 169 42 8 13 13 42 14 65 0 33 -6 48 -31 72 -27 28
-37 31 -89 31 -51 0 -61 -3 -79 -26z m136 -10 c12 -8 26 -29 31 -47 29 -110
-120 -169 -173 -67 -22 43 -2 99 45 122 36 18 58 16 97 -8z"/>
<path d="M6810 6896 c0 -42 3 -76 8 -76 4 0 7 16 6 35 -2 28 2 35 16 35 24 0
36 -16 39 -55 0 -8 5 -15 10 -15 15 0 19 36 5 54 -10 14 -10 22 -1 37 18 29
-3 53 -47 57 l-36 3 0 -75z m60 44 c19 -12 1 -33 -30 -35 -17 -1 -20 10 -11
43 2 5 27 1 41 -8z"/>
<path d="M4808 6035 c-2 -2 -52 -6 -113 -9 -60 -4 -119 -9 -130 -11 -11 -2
-45 -7 -75 -10 -86 -9 -111 -13 -237 -35 -213 -38 -515 -110 -650 -155 -23 -8
-52 -16 -65 -19 -36 -7 -317 -107 -473 -169 -180 -71 -325 -133 -450 -193
l-99 -48 59 -12 c240 -49 392 -196 422 -407 10 -63 9 -223 -1 -292 -69 -488
-413 -834 -874 -880 -48 -5 -738 -9 -894 -6 -25 1 -26 3 -18 34 5 17 12 46 14
62 3 17 15 75 27 130 11 55 23 111 25 124 5 25 90 426 100 470 5 22 4 23 -13
10 -49 -39 -82 -69 -138 -124 l-60 -60 46 -5 46 -5 -31 -80 c-90 -231 -228
-389 -427 -487 -85 -42 -87 -44 -117 -108 -82 -176 -119 -376 -97 -525 42
-277 339 -514 760 -606 240 -53 354 -64 655 -63 295 0 397 8 735 59 582 87
1340 333 1890 612 555 282 1008 599 1320 924 257 267 426 567 463 818 4 25 6
96 6 156 -5 351 -231 635 -624 784 -65 25 -258 77 -315 86 -22 3 -65 10 -95
15 -30 6 -86 13 -125 16 -69 6 -442 13 -447 9z m-1123 -707 c-7 -103 -14 -184
-20 -248 -5 -56 -10 -127 -20 -255 -3 -38 -7 -92 -10 -120 -3 -27 -7 -81 -10
-120 -3 -38 -8 -98 -11 -132 -3 -35 -1 -63 3 -63 5 0 20 35 35 78 14 42 55
160 91 262 159 455 199 568 216 615 l19 50 335 3 335 2 -3 -52 c-2 -29 -6 -89
-9 -133 -3 -44 -8 -120 -11 -170 -3 -49 -8 -117 -10 -150 -6 -65 -12 -163 -20
-295 -3 -47 -7 -110 -10 -140 -4 -46 -3 -51 6 -30 22 49 29 68 140 385 61 176
132 380 158 452 l46 133 287 0 287 0 -16 -37 c-8 -21 -74 -173 -145 -338 -72
-165 -180 -415 -240 -555 -61 -140 -119 -273 -129 -295 -9 -22 -39 -89 -65
-150 -25 -60 -54 -128 -64 -150 -10 -22 -21 -50 -24 -62 -4 -13 -16 -23 -27
-24 -10 0 -156 0 -324 0 -168 0 -314 0 -325 0 -22 1 -23 16 -5 246 3 39 7 106
10 150 2 44 7 112 10 150 3 39 7 106 10 150 4 84 15 254 20 318 1 20 -1 37 -4
37 -4 0 -21 -39 -38 -87 -94 -265 -288 -819 -310 -885 -23 -71 -27 -78 -52
-79 -108 -2 -653 0 -656 3 -5 4 -20 1541 -16 1596 1 9 65 12 286 12 l286 0 -6
-72z"/>
<path d="M2086 5009 c-3 -13 -31 -140 -61 -281 -31 -141 -58 -266 -60 -278 -8
-35 -23 -105 -29 -135 -3 -11 -11 -50 -19 -87 -8 -37 -13 -69 -11 -71 7 -7
105 3 146 14 114 30 189 130 243 324 9 33 20 71 25 85 15 42 24 130 25 240 0
97 -2 108 -25 138 -35 47 -74 64 -157 70 -69 4 -72 4 -77 -19z"/>
<path d="M6394 3928 c-27 -24 -51 -45 -54 -48 -49 -54 -499 -380 -672 -487
-654 -403 -1491 -756 -2184 -918 -60 -14 -136 -32 -169 -40 -33 -8 -73 -17
-90 -19 -16 -3 -93 -17 -170 -31 -77 -13 -157 -27 -177 -30 -87 -12 -105 -14
-153 -20 -27 -3 -65 -7 -84 -10 -215 -27 -750 -27 -941 0 -39 6 -213 37 -275
49 -43 8 -242 69 -275 83 -197 86 -297 147 -403 244 -105 96 -201 255 -243
404 -19 67 -27 280 -14 342 5 21 11 52 13 68 8 48 38 146 63 203 l24 54 -58
-7 c-31 -4 -68 -9 -82 -11 -36 -5 -270 -5 -278 0 -4 2 -27 7 -52 11 -25 4 -48
9 -53 12 -4 2 -21 8 -37 13 l-30 9 0 -1620 0 -1619 3227 2 3226 3 0 1698 c0
933 -2 1699 -5 1702 -3 3 -27 -14 -54 -37z"/>
</g>
</svg>
